<svg width="275" height="122" viewBox="0 0 275 122" fill="none" xmlns="http://www.w3.org/2000/svg">
<rect x="75.7632" y="48" width="12" height="47.7483" transform="rotate(45 75.7632 48)" fill="#E5E5EA"/>
<rect width="12" height="47.7483" transform="matrix(0.642788 -0.766044 -0.766044 -0.642788 156.577 85.8846)" fill="#E5E5EA"/>
<rect x="232.577" y="38" width="12" height="47.7483" transform="rotate(50 232.577 38)" fill="#E5E5EA"/>
<path d="M52 96C52 110.359 40.3594 122 26 122C11.6406 122 0 110.359 0 96C0 81.6406 11.6406 70 26 70C40.3594 70 52 81.6406 52 96ZM13 96C13 103.18 18.8203 109 26 109C33.1797 109 39 103.18 39 96C39 88.8203 33.1797 83 26 83C18.8203 83 13 88.8203 13 96Z" fill="#5990DC"/>
<path d="M127 45C127 59.3594 115.359 71 101 71C86.6406 71 75 59.3594 75 45C75 30.6406 86.6406 19 101 19C115.359 19 127 30.6406 127 45ZM88 45C88 52.1797 93.8203 58 101 58C108.18 58 114 52.1797 114 45C114 37.8203 108.18 32 101 32C93.8203 32 88 37.8203 88 45Z" fill="#5990DC"/>
<path d="M207 84C207 98.3594 195.359 110 181 110C166.641 110 155 98.3594 155 84C155 69.6406 166.641 58 181 58C195.359 58 207 69.6406 207 84ZM168 84C168 91.1797 173.82 97 181 97C188.18 97 194 91.1797 194 84C194 76.8203 188.18 71 181 71C173.82 71 168 76.8203 168 84Z" fill="#5990DC"/>
<path d="M275 26C275 40.3594 263.359 52 249 52C234.641 52 223 40.3594 223 26C223 11.6406 234.641 0 249 0C263.359 0 275 11.6406 275 26ZM236 26C236 33.1797 241.82 39 249 39C256.18 39 262 33.1797 262 26C262 18.8203 256.18 13 249 13C241.82 13 236 18.8203 236 26Z" fill="#5990DC"/>
</svg>
